<svg width="28" height="28" viewBox="0 0 28 28" fill="none" xmlns="http://www.w3.org/2000/svg">
<rect width="28" height="28" rx="8" fill="black"/>
<path d="M14.6104 14.996H12.7064L12.0824 18.5H9.20244L11.2344 6.98H16.1144C17.3198 6.98 18.1784 7.25733 18.6904 7.812C19.0638 8.23867 19.2504 8.78267 19.2504 9.444C19.2504 9.668 19.2291 9.90267 19.1864 10.148L18.8664 11.956C18.7064 12.8413 18.2371 13.572 17.4584 14.148C16.6798 14.7133 15.7304 14.996 14.6104 14.996ZM15.1064 9.476H13.6664L13.1384 12.5H14.5624C15.4371 12.5 15.9438 12.1107 16.0824 11.332L16.1944 10.676C16.2158 10.58 16.2264 10.452 16.2264 10.292C16.2264 10.132 16.1464 9.956 15.9864 9.764C15.8264 9.572 15.5331 9.476 15.1064 9.476Z" fill="white"/>
</svg>
